<svg width="128" height="128" viewBox="0 0 128 128" xmlns="http://www.w3.org/2000/svg">
  <path fill="#41D1FF" d="M64 128C99.3462 128 128 99.3462 128 64C128 28.6538 99.3462 0 64 0C28.6538 0 0 28.6538 0 64C0 99.3462 28.6538 128 64 128Z"/>
  <path fill="#FFD700" d="M64 104C85.5228 104 104 85.5228 104 64C104 42.4772 85.5228 24 64 24C42.4772 24 24 42.4772 24 64C24 85.5228 42.4772 104 64 104Z"/>
  <path fill="#FF4B4B" d="M64 80C73.3888 80 80 73.3888 80 64C80 54.6112 73.3888 48 64 48C54.6112 48 48 54.6112 48 64C48 73.3888 54.6112 80 64 80Z"/>
</svg>
